<svg width="24" height="24" viewBox="0 0 21 21" fill="none" xmlns="http://www.w3.org/2000/svg">
<path d="M10.8606 16.8274C12.5273 16.8274 13.9439 16.2441 15.1106 15.0774C16.2773 13.9107 16.8606 12.4941 16.8606 10.8274C16.8606 9.16073 16.2773 7.74406 15.1106 6.57739C13.9439 5.41073 12.5273 4.82739 10.8606 4.82739V10.8274L6.6106 15.0774C7.19393 15.6274 7.8481 16.0566 8.5731 16.3649C9.2981 16.6732 10.0606 16.8274 10.8606 16.8274ZM10.8606 20.8274C9.47726 20.8274 8.17726 20.5649 6.9606 20.0399C5.74393 19.5149 4.6856 18.8024 3.7856 17.9024C2.8856 17.0024 2.1731 15.9441 1.6481 14.7274C1.1231 13.5107 0.860596 12.2107 0.860596 10.8274C0.860596 9.44406 1.1231 8.14406 1.6481 6.92739C2.1731 5.71073 2.8856 4.65239 3.7856 3.75239C4.6856 2.85239 5.74393 2.13989 6.9606 1.61489C8.17726 1.08989 9.47726 0.827393 10.8606 0.827393C12.2439 0.827393 13.5439 1.08989 14.7606 1.61489C15.9773 2.13989 17.0356 2.85239 17.9356 3.75239C18.8356 4.65239 19.5481 5.71073 20.0731 6.92739C20.5981 8.14406 20.8606 9.44406 20.8606 10.8274C20.8606 12.2107 20.5981 13.5107 20.0731 14.7274C19.5481 15.9441 18.8356 17.0024 17.9356 17.9024C17.0356 18.8024 15.9773 19.5149 14.7606 20.0399C13.5439 20.5649 12.2439 20.8274 10.8606 20.8274ZM10.8606 18.8274C13.0939 18.8274 14.9856 18.0524 16.5356 16.5024C18.0856 14.9524 18.8606 13.0607 18.8606 10.8274C18.8606 8.59406 18.0856 6.70239 16.5356 5.15239C14.9856 3.60239 13.0939 2.82739 10.8606 2.82739C8.62726 2.82739 6.7356 3.60239 5.1856 5.15239C3.6356 6.70239 2.8606 8.59406 2.8606 10.8274C2.8606 13.0607 3.6356 14.9524 5.1856 16.5024C6.7356 18.0524 8.62726 18.8274 10.8606 18.8274Z" fill="#1ED760"/>
</svg>
