<svg width="49" height="49" viewBox="0 0 49 49" fill="none" xmlns="http://www.w3.org/2000/svg">
<rect x="0.5" y="0.5" width="48" height="48" rx="24" fill="#1ED760"/>
<mask id="mask0_71_24" style="mask-type:alpha" maskUnits="userSpaceOnUse" x="0" y="0" width="49" height="49">
<rect x="0.5" y="0.5" width="48" height="48" fill="#D9D9D9"/>
</mask>
<g mask="url(#mask0_71_24)">
<path d="M30.5 38.5C29.4 38.5 28.4583 38.1083 27.675 37.325C26.8917 36.5417 26.5 35.6 26.5 34.5V14.5C26.5 13.4 26.8917 12.4583 27.675 11.675C28.4583 10.8917 29.4 10.5 30.5 10.5H34.5C35.6 10.5 36.5417 10.8917 37.325 11.675C38.1083 12.4583 38.5 13.4 38.5 14.5V34.5C38.5 35.6 38.1083 36.5417 37.325 37.325C36.5417 38.1083 35.6 38.5 34.5 38.5H30.5ZM14.5 38.5C13.4 38.5 12.4583 38.1083 11.675 37.325C10.8917 36.5417 10.5 35.6 10.5 34.5V14.5C10.5 13.4 10.8917 12.4583 11.675 11.675C12.4583 10.8917 13.4 10.5 14.5 10.5H18.5C19.6 10.5 20.5417 10.8917 21.325 11.675C22.1083 12.4583 22.5 13.4 22.5 14.5V34.5C22.5 35.6 22.1083 36.5417 21.325 37.325C20.5417 38.1083 19.6 38.5 18.5 38.5H14.5Z" fill="#1C1B1F"/>
</g>
</svg>
