<svg width="49" height="49" viewBox="0 0 49 49" fill="none" xmlns="http://www.w3.org/2000/svg">
<rect x="0.5" y="0.5" width="48" height="48" rx="24" fill="#1ED760"/>
<mask id="mask0_10_12" style="mask-type:alpha" maskUnits="userSpaceOnUse" x="0" y="0" width="49" height="49">
<rect x="0.5" y="0.5" width="48" height="48" fill="#D9D9D9"/>
</mask>
<g mask="url(#mask0_10_12)">
<path d="M16.5 34.85V14.15C16.5 13.5834 16.7 13.1084 17.1 12.725C17.5 12.3417 17.9667 12.15 18.5 12.15C18.6667 12.15 18.8417 12.175 19.025 12.225C19.2083 12.275 19.3833 12.35 19.55 12.45L35.85 22.8C36.15 23 36.375 23.25 36.525 23.55C36.675 23.85 36.75 24.1667 36.75 24.5C36.75 24.8334 36.675 25.15 36.525 25.45C36.375 25.75 36.15 26 35.85 26.2L19.55 36.55C19.3833 36.65 19.2083 36.725 19.025 36.775C18.8417 36.825 18.6667 36.85 18.5 36.85C17.9667 36.85 17.5 36.6584 17.1 36.275C16.7 35.8917 16.5 35.4167 16.5 34.85Z" fill="#1E1E1E"/>
</g>
</svg>
